<svg width="115" height="105" viewBox="0 0 115 105" fill="none" xmlns="http://www.w3.org/2000/svg">
<path d="M96.3867 72.9492C96.3867 77.3112 96.582 80.957 96.9727 83.8867C97.4284 86.7513 98.1771 89.0625 99.2188 90.8203C100.326 92.5781 101.823 93.8477 103.711 94.6289C105.599 95.3451 107.585 95.7031 109.668 95.7031C111.751 95.7031 113.053 95.6706 113.574 95.6055L114.062 97.3633C103.32 100.553 93.4245 102.148 84.375 102.148C83.0729 98.6328 82.4219 94.9219 82.4219 91.0156V86.4258C78.9714 89.4857 75.7487 92.1224 72.7539 94.3359C69.8242 96.5495 66.9271 98.4049 64.0625 99.9023C61.1979 101.335 58.2682 102.409 55.2734 103.125C52.2786 103.841 49.056 104.199 45.6055 104.199C41.6992 104.199 37.793 103.743 33.8867 102.832C30.0456 101.921 26.5625 100.293 23.4375 97.9492C20.3125 95.6055 17.7734 92.4154 15.8203 88.3789C13.9323 84.3424 12.9883 79.1992 12.9883 72.9492V12.5977C12.9883 9.99349 11.8815 8.00781 9.66797 6.64062C7.51953 5.27344 4.29688 4.00391 0 2.83203L0.78125 0.390625C4.55729 1.17188 9.4401 1.5625 15.4297 1.5625C19.1406 1.5625 23.4701 1.04167 28.418 0L29.0039 0.976562C27.7018 2.99479 27.0508 6.47786 27.0508 11.4258V69.4336C27.0508 74.8372 27.6693 79.2969 28.9062 82.8125C30.1432 86.263 31.8034 88.9974 33.8867 91.0156C35.9701 93.0339 38.4115 94.4336 41.2109 95.2148C44.0104 95.931 46.9727 96.2891 50.0977 96.2891C53.0273 96.2891 55.7292 95.9961 58.2031 95.4102C60.7422 94.7591 63.2812 93.7826 65.8203 92.4805C68.3594 91.1133 70.9635 89.388 73.6328 87.3047C76.3021 85.1562 79.2318 82.5846 82.4219 79.5898V15.0391C82.4219 13.0208 82.2266 11.3932 81.8359 10.1562C81.5104 8.85417 80.8268 7.77995 79.7852 6.93359C78.8086 6.02214 77.3763 5.24089 75.4883 4.58984C73.6003 3.9388 71.1263 3.22266 68.0664 2.44141L68.8477 0C72.5586 0.520833 75.7487 0.911458 78.418 1.17188C81.0872 1.43229 83.2357 1.5625 84.8633 1.5625C88.5742 1.5625 92.9036 1.04167 97.8516 0L98.4375 0.976562C97.0703 2.92969 96.3867 6.41276 96.3867 11.4258V72.9492Z" fill="black"/>
</svg>
