<svg width="699" height="182" viewBox="0 0 699 182" fill="none" xmlns="http://www.w3.org/2000/svg">
<path d="M96.3867 97.168C96.3867 101.53 96.582 105.176 96.9727 108.105C97.4284 110.97 98.1771 113.281 99.2188 115.039C100.326 116.797 101.823 118.066 103.711 118.848C105.599 119.564 107.585 119.922 109.668 119.922C111.751 119.922 113.053 119.889 113.574 119.824L114.062 121.582C103.32 124.772 93.4245 126.367 84.375 126.367C83.0729 122.852 82.4219 119.141 82.4219 115.234V110.645C78.9714 113.704 75.7487 116.341 72.7539 118.555C69.8242 120.768 66.9271 122.624 64.0625 124.121C61.1979 125.553 58.2682 126.628 55.2734 127.344C52.2786 128.06 49.056 128.418 45.6055 128.418C41.6992 128.418 37.793 127.962 33.8867 127.051C30.0456 126.139 26.5625 124.512 23.4375 122.168C20.3125 119.824 17.7734 116.634 15.8203 112.598C13.9323 108.561 12.9883 103.418 12.9883 97.168V36.8164C12.9883 34.2122 11.8815 32.2266 9.66797 30.8594C7.51953 29.4922 4.29688 28.2227 0 27.0508L0.78125 24.6094C4.55729 25.3906 9.4401 25.7812 15.4297 25.7812C19.1406 25.7812 23.4701 25.2604 28.418 24.2188L29.0039 25.1953C27.7018 27.2135 27.0508 30.6966 27.0508 35.6445V93.6523C27.0508 99.056 27.6693 103.516 28.9062 107.031C30.1432 110.482 31.8034 113.216 33.8867 115.234C35.9701 117.253 38.4115 118.652 41.2109 119.434C44.0104 120.15 46.9727 120.508 50.0977 120.508C53.0273 120.508 55.7292 120.215 58.2031 119.629C60.7422 118.978 63.2812 118.001 65.8203 116.699C68.3594 115.332 70.9635 113.607 73.6328 111.523C76.3021 109.375 79.2318 106.803 82.4219 103.809V39.2578C82.4219 37.2396 82.2266 35.612 81.8359 34.375C81.5104 33.0729 80.8268 31.9987 79.7852 31.1523C78.8086 30.2409 77.3763 29.4596 75.4883 28.8086C73.6003 28.1576 71.1263 27.4414 68.0664 26.6602L68.8477 24.2188C72.5586 24.7396 75.7487 25.1302 78.418 25.3906C81.0872 25.651 83.2357 25.7812 84.8633 25.7812C88.5742 25.7812 92.9036 25.2604 97.8516 24.2188L98.4375 25.1953C97.0703 27.1484 96.3867 30.6315 96.3867 35.6445V97.168Z" fill="black"/>
<path d="M165.297 128.418C158.461 128.418 152.113 127.051 146.254 124.316C140.395 121.582 135.512 117.936 131.605 113.379C127.699 108.757 124.639 103.516 122.426 97.6562C120.212 91.7318 119.105 85.5794 119.105 79.1992C119.105 70.0846 120.44 61.9141 123.109 54.6875C125.779 47.4609 129.49 41.569 134.242 37.0117C138.995 32.3893 144.529 28.8737 150.844 26.4648C157.224 24.056 164.19 22.8516 171.742 22.8516C180.076 22.8516 188.669 24.3815 197.523 27.4414L191.176 51.3672L187.562 50.3906C188.279 43.5547 188.083 37.6953 186.977 32.8125C179.685 30.6641 173.077 29.5898 167.152 29.5898C155.694 29.5898 147.361 33.3333 142.152 40.8203C136.944 48.2422 134.34 59.2448 134.34 73.8281C134.34 87.4349 137.497 98.763 143.812 107.812C150.193 116.862 158.233 121.387 167.934 121.387C179.978 121.387 189.776 117.611 197.328 110.059L201.332 114.258C196.449 119.336 191.111 122.949 185.316 125.098C179.587 127.311 172.914 128.418 165.297 128.418Z" fill="black"/>
<path d="M228.445 162.402C228.445 167.611 229.65 171.419 232.059 173.828C234.467 176.302 238.732 178.092 244.852 179.199L244.07 181.641C236.844 180.534 230.822 179.98 226.004 179.98C222.293 179.98 217.964 180.534 213.016 181.641L212.43 180.566C213.732 178.678 214.383 175.228 214.383 170.215V52.0508C214.383 42.806 213.276 36.6211 211.062 33.4961C208.914 30.306 204.292 28.9388 197.195 29.3945L196.805 27.6367C207.547 24.4466 217.41 22.8516 226.395 22.8516C227.762 26.237 228.445 29.9479 228.445 33.9844V39.6484C234.174 33.7891 239.936 29.5247 245.73 26.8555C251.525 24.1862 257.905 22.8516 264.871 22.8516C270.73 22.8516 276.102 24.2188 280.984 26.9531C285.932 29.6224 290.001 33.1706 293.191 37.5977C296.382 42.0247 298.855 47.0378 300.613 52.6367C302.371 58.1706 303.25 63.8997 303.25 69.8242C303.25 87.4023 298.595 101.562 289.285 112.305C280.04 123.047 266.759 128.418 249.441 128.418C241.564 128.418 234.565 127.734 228.445 126.367V162.402ZM228.445 47.4609V115.234C231.505 116.927 235.639 118.327 240.848 119.434C246.056 120.475 251.264 120.996 256.473 120.996C261.551 120.996 265.945 120.247 269.656 118.75C273.432 117.188 276.46 115.137 278.738 112.598C281.017 109.993 282.84 106.673 284.207 102.637C285.639 98.6003 286.583 94.4336 287.039 90.1367C287.56 85.7747 287.82 80.7292 287.82 75C287.82 60.1562 285.314 48.9258 280.301 41.3086C275.288 33.6263 268.647 29.7852 260.379 29.7852C255.236 29.7852 249.865 31.3151 244.266 34.375C238.732 37.3698 233.458 41.7318 228.445 47.4609Z" fill="black"/>
<path d="M376.555 101.66C376.555 106.348 375.611 110.384 373.723 113.77C371.835 117.155 369.296 119.954 366.105 122.168C362.98 124.316 359.302 125.879 355.07 126.855C350.904 127.897 346.509 128.418 341.887 128.418C330.689 128.418 320.174 126.074 310.344 121.387C311.581 117.09 312.818 113.118 314.055 109.473C315.292 105.762 316.561 102.344 317.863 99.2188L320.695 100.195C320.109 103.06 319.816 105.827 319.816 108.496C319.816 111.1 319.914 113.477 320.109 115.625C322.128 116.667 324.016 117.578 325.773 118.359C327.531 119.076 329.289 119.694 331.047 120.215C332.805 120.671 334.693 121.029 336.711 121.289C338.729 121.484 341.073 121.582 343.742 121.582C347.714 121.582 351.001 121.322 353.605 120.801C356.21 120.28 358.228 119.401 359.66 118.164C361.158 116.862 362.199 115.169 362.785 113.086C363.371 110.938 363.664 108.301 363.664 105.176C363.664 102.767 363.241 100.521 362.395 98.4375C361.613 96.2891 360.214 94.1732 358.195 92.0898C356.242 90.0065 353.605 87.8581 350.285 85.6445C347.03 83.3659 342.961 80.8919 338.078 78.2227C330.201 73.5352 324.243 68.8802 320.207 64.2578C316.171 59.5703 314.152 54.5573 314.152 49.2188C314.152 44.987 315.031 41.2435 316.789 37.9883C318.547 34.668 320.923 31.901 323.918 29.6875C326.978 27.4089 330.526 25.7161 334.562 24.6094C338.599 23.4375 342.863 22.8516 347.355 22.8516C349.634 22.8516 352.01 23.0143 354.484 23.3398C357.023 23.6654 359.465 24.1536 361.809 24.8047C364.152 25.3906 366.333 26.1393 368.352 27.0508C370.435 27.8971 372.225 28.8737 373.723 29.9805C371.639 38.5091 369.1 45.9961 366.105 52.4414L363.273 51.3672C363.404 49.4792 363.501 47.168 363.566 44.4336C363.632 41.6341 363.664 38.3464 363.664 34.5703C359.432 31.25 353.573 29.5898 346.086 29.5898C342.375 29.5898 339.217 29.8177 336.613 30.2734C334.074 30.7292 332.023 31.5104 330.461 32.6172C328.898 33.724 327.759 35.2539 327.043 37.207C326.392 39.0951 326.066 41.5039 326.066 44.4336C326.066 46.582 326.359 48.6003 326.945 50.4883C327.531 52.3112 328.573 54.1341 330.07 55.957C331.568 57.7148 333.586 59.5378 336.125 61.4258C338.729 63.2487 342.049 65.2344 346.086 67.3828C352.401 70.8333 357.512 73.8607 361.418 76.4648C365.389 79.069 368.482 81.6406 370.695 84.1797C372.974 86.6536 374.504 89.2578 375.285 91.9922C376.132 94.7266 376.555 97.9492 376.555 101.66Z" fill="black"/>
<path d="M411.188 97.4609C411.188 106.315 412.164 112.435 414.117 115.82C416.07 119.141 419.228 120.801 423.59 120.801C428.342 120.801 434.137 119.01 440.973 115.43L444 119.629C433.258 125.488 424.469 128.418 417.633 128.418C413.987 128.418 411.025 128.092 408.746 127.441C406.467 126.79 404.384 125.521 402.496 123.633C400.608 121.745 399.241 118.978 398.395 115.332C397.613 111.621 397.223 106.836 397.223 100.977V34.7656L382.574 35.6445V29.3945C387.717 28.2878 392.6 27.5716 397.223 27.2461V13.3789C402.757 10.2539 407.281 5.79427 410.797 0L413.824 1.17188C412.717 3.77604 412.001 6.73828 411.676 10.0586C411.35 13.3138 411.188 18.8477 411.188 26.6602H444.781V30.0781C442.047 31.1849 439.28 32.1289 436.48 32.9102C433.681 33.6263 430.784 33.9844 427.789 33.9844H411.188V97.4609Z" fill="black"/>
<path d="M494.355 22.8516C509.329 22.8516 521.081 27.4414 529.609 36.6211C538.138 45.8008 542.402 58.5938 542.402 75C542.402 84.5052 540.221 93.3594 535.859 101.562C531.497 109.766 525.573 116.309 518.086 121.191C510.599 126.009 502.493 128.418 493.77 128.418C478.73 128.418 466.947 123.893 458.418 114.844C449.954 105.729 445.723 92.8385 445.723 76.1719C445.723 66.276 447.904 57.2591 452.266 49.1211C456.628 40.918 462.52 34.5052 469.941 29.8828C477.428 25.1953 485.566 22.8516 494.355 22.8516ZM492.402 29.5898C487.259 29.5898 482.799 30.3385 479.023 31.8359C475.247 33.3333 472.22 35.3516 469.941 37.8906C467.663 40.4297 465.84 43.6523 464.473 47.5586C463.105 51.4648 462.161 55.4688 461.641 59.5703C461.185 63.6719 460.957 68.4245 460.957 73.8281C460.957 82.4219 461.966 89.9414 463.984 96.3867C466.068 102.767 468.835 107.747 472.285 111.328C475.736 114.844 479.414 117.448 483.32 119.141C487.227 120.768 491.361 121.582 495.723 121.582C500.801 121.582 505.228 120.801 509.004 119.238C512.845 117.611 515.905 115.527 518.184 112.988C520.462 110.384 522.285 107.129 523.652 103.223C525.02 99.2513 525.931 95.2474 526.387 91.2109C526.908 87.1745 527.168 82.5846 527.168 77.4414C527.168 70.2148 526.484 63.7695 525.117 58.1055C523.75 52.4414 521.927 47.8516 519.648 44.3359C517.435 40.8203 514.766 37.9232 511.641 35.6445C508.581 33.3659 505.488 31.8034 502.363 30.957C499.238 30.0456 495.918 29.5898 492.402 29.5898Z" fill="black"/>
<path d="M560.922 52.0508C560.922 47.6888 560.694 44.043 560.238 41.1133C559.848 38.1836 559.099 35.8398 557.992 34.082C556.951 32.3242 555.486 31.0872 553.598 30.3711C551.71 29.6549 548.422 29.3294 543.734 29.3945L543.344 27.6367C553.956 24.4466 563.819 22.8516 572.934 22.8516C574.301 26.3021 574.984 30.013 574.984 33.9844V45.9961L575.375 46.3867C578.109 42.6107 580.714 39.2578 583.188 36.3281C585.727 33.3984 588.298 30.957 590.902 29.0039C593.507 27.0508 596.241 25.5859 599.105 24.6094C601.97 23.5677 605.16 23.0469 608.676 23.0469C610.889 23.0469 613.331 23.2422 616 23.6328L610.336 47.4609L606.723 46.3867C606.723 45.4102 606.658 44.0755 606.527 42.3828C606.397 40.6901 606.202 39.0299 605.941 37.4023C605.746 35.7096 605.453 34.2773 605.062 33.1055C604.737 31.8685 604.346 31.25 603.891 31.25C602.003 31.25 600.082 31.6732 598.129 32.5195C596.241 33.3008 594.158 34.6029 591.879 36.4258C589.6 38.2487 587.094 40.625 584.359 43.5547C581.625 46.4844 578.5 50.0326 574.984 54.1992V111.035C574.984 113.118 575.147 114.811 575.473 116.113C575.798 117.35 576.482 118.392 577.523 119.238C578.565 120.085 580.03 120.833 581.918 121.484C583.806 122.135 586.28 122.852 589.34 123.633L588.559 125.977C584.783 125.456 581.56 125.065 578.891 124.805C576.286 124.544 574.171 124.414 572.543 124.414C568.832 124.414 564.503 124.935 559.555 125.977L558.969 125C560.271 123.112 560.922 119.661 560.922 114.648V52.0508Z" fill="black"/>
<path d="M615.965 76.8555C615.965 69.9544 617.104 63.2812 619.383 56.8359C621.661 50.3255 624.917 44.5638 629.148 39.5508C633.38 34.4727 638.491 30.4362 644.48 27.4414C650.535 24.3815 657.306 22.8516 664.793 22.8516C669.48 22.8516 673.908 23.6654 678.074 25.293C682.241 26.8555 685.854 29.3294 688.914 32.7148C692.039 36.0352 694.48 40.332 696.238 45.6055C698.061 50.8138 698.973 57.0312 698.973 64.2578L695.164 67.7734H631.395C631.264 68.8802 631.199 69.9544 631.199 70.9961C631.199 72.0378 631.199 73.0794 631.199 74.1211C631.199 81.2174 632.013 87.6628 633.641 93.457C635.333 99.2513 637.579 104.232 640.379 108.398C643.243 112.5 646.596 115.69 650.438 117.969C654.279 120.247 658.348 121.387 662.645 121.387C665.379 121.387 668.146 121.191 670.945 120.801C673.81 120.345 676.577 119.661 679.246 118.75C681.98 117.839 684.617 116.667 687.156 115.234C689.695 113.802 692.039 112.077 694.188 110.059L698.191 114.258C693.048 119.336 687.449 122.949 681.395 125.098C675.34 127.311 668.341 128.418 660.398 128.418C654.148 128.418 648.289 127.214 642.82 124.805C637.417 122.396 632.729 118.945 628.758 114.453C624.786 109.961 621.661 104.557 619.383 98.2422C617.104 91.862 615.965 84.7331 615.965 76.8555ZM662.645 29.5898C652.553 29.5898 645.164 32.2266 640.477 37.5C635.789 42.7083 632.957 50.2279 631.98 60.0586H686.375C685.854 49.3815 683.445 41.6341 679.148 36.8164C674.917 31.9987 669.415 29.5898 662.645 29.5898Z" fill="black"/>
</svg>
